<svg fill="none" height="24" viewBox="0 0 126 24" width="126" xmlns="http://www.w3.org/2000/svg"><g fill="#fff"><path d="m38.0707 6.27136c-.2814-.40202-.7236-.72363-1.2463-.96484-.5226-.2412-1.0854-.40201-1.608-.40201-.3216 0-.6432.0402-.9648.12061-.3216.0804-.6031.201-.8845.36181-.2814.1608-.4824.40201-.6432.68342s-.2412.60302-.2412.96483.0804.64322.2412.92463c.1608.24121.3618.48242.603.64322.2412.16081.5629.32161.9247.48242.3618.1206.7638.28141 1.206.40201.4824.16081 1.005.36181 1.5679.56284.5226.201 1.0452.4824 1.4874.804s.804.7638 1.1256 1.2864c.2814.5227.4423 1.1659.4423 1.9297 0 .8442-.1609 1.5679-.4825 2.2111s-.7236 1.1658-1.2462 1.5678-1.1256.7237-1.8091.9247c-.6834.201-1.407.3216-2.1708.3216-1.0051 0-2.0101-.201-2.9749-.5628-.9649-.3619-1.7689-.9247-2.3719-1.6885l2.0101-1.8493c.402.5227.8844.9649 1.5276 1.2463.6432.3216 1.2864.4824 1.8895.4824.3216 0 .6432-.0402 1.005-.1206.3216-.0804.6432-.201.9246-.402s.4824-.4422.6835-.7236c.1608-.2815.2412-.6433.2412-1.0855 0-.402-.0804-.7638-.2814-1.0452-.2011-.2814-.4423-.5226-.7639-.7236s-.7236-.3618-1.1658-.5227c-.4422-.1608-.9246-.3216-1.4071-.4824-.4824-.1608-.9246-.3216-1.407-.5226s-.8844-.4824-1.2864-.804c-.3619-.32162-.6835-.76384-.9247-1.24625-.2412-.48242-.3618-1.12564-.3618-1.84926 0-.80403.1608-1.48745.4824-2.05027s.7639-1.04523 1.2865-1.40705c.5226-.36181 1.1658-.64322 1.8492-.84422.6835-.20101 1.3669-.28141 2.0905-.28141.804 0 1.6081.1206 2.4121.40201s1.5276.68342 2.1307 1.24624z"/><path d="m41.0054 10.1711v-2.13069h1.8492v-3.0553h2.6131v3.0553h2.6533v2.13069h-2.6533v4.9447c0 .4825.0804.8443.2412 1.1659s.5628.4824 1.1257.4824c.1608 0 .3618 0 .5628-.0402s.402-.0804.5628-.1608l.0804 2.0905c-.2412.0804-.5226.1608-.8442.201s-.6432.0804-.9247.0804c-.7236 0-1.2864-.0804-1.7286-.2814-.4422-.2011-.804-.4825-1.0452-.8041-.2413-.3618-.4423-.7638-.5227-1.206s-.1608-.9246-.1608-1.4473v-5.0251z"/><path d="m59.8601 13.4675v.3618c0 .1206 0 .2412-.0402.3618h-8.0805c.0402.402.1206.7236.2814 1.0452s.402.603.6834.804c.2814.2412.6031.4021.9649.5227s.7236.201 1.1256.201c.6834 0 1.206-.1206 1.6885-.3618.4422-.2413.8442-.5629 1.1256-1.0051l1.7689 1.4071c-1.0453 1.407-2.5729 2.1306-4.5428 2.1306-.8442 0-1.5678-.1206-2.2915-.402-.6834-.2412-1.2864-.603-1.809-1.0854s-.9247-1.0452-1.2061-1.7287c-.2814-.6834-.4422-1.4472-.4422-2.3316 0-.8443.1608-1.6483.4422-2.3317s.6835-1.28647 1.1659-1.80908c.4824-.48242 1.0854-.88443 1.7688-1.16584.6835-.28141 1.4071-.40201 2.2111-.40201.7236 0 1.407.1206 2.0503.36181.6432.24121 1.1658.60302 1.608 1.08543.4422.48242.804 1.08539 1.0855 1.80909.3216.7638.4422 1.5678.4422 2.5327zm-2.6533-1.1659c0-.3216-.0402-.6432-.1608-.9648-.0804-.3216-.2412-.5628-.4422-.804s-.4825-.4423-.8041-.56286c-.3216-.1206-.6834-.20101-1.1256-.20101-.804 0-1.4874.24117-2.0101.72367-.5226.4824-.8442 1.0854-.9246 1.8492h5.4674z"/><path d="m61.5483 8.0402h2.5327v1.76886h.0402c.2814-.60302.7236-1.12564 1.2462-1.48745.5226-.40202 1.1658-.56282 1.8493-.56282h.3216c.1206 0 .2412.0402.3216.0402v2.45231c-.1608-.0402-.3216-.0804-.4422-.0804s-.2412-.0402-.3618-.0402c-.6031 0-1.0855.1206-1.4473.3216-.3618.2412-.6432.4824-.8442.804s-.3618.6432-.402.9648c-.0804.3216-.1206.5629-.1206.7639v5.6683h-2.6935z"/><path d="m69.2674 4.42177c0-.44221.1608-.80402.4824-1.12563s.7236-.48242 1.206-.48242c.4825 0 .8845.16081 1.2463.44222.3216.32161.4824.68342.4824 1.12563 0 .44222-.1608.84423-.4824 1.12564-.3216.32161-.7236.44221-1.2463.44221-.4824 0-.8844-.1608-1.206-.48241-.3216-.24121-.4824-.60302-.4824-1.04524zm.402 3.61812h2.6533v10.61311h-2.6533z"/><path d="m81.93 10.9749c-.201-.2814-.5226-.5226-.9246-.7236s-.8442-.28144-1.2462-.28144c-.4825 0-.9247.08044-1.2865.28144s-.6834.4422-.9246.804-.4422.6834-.5226 1.0854c-.1206.402-.1608.8041-.1608 1.2463s.0804.804.201 1.2462c.1206.402.3216.7638.5628 1.0854.2412.3217.5628.6031.9246.8041s.8041.2814 1.3267.2814c.402 0 .8442-.0804 1.2462-.2412s.7236-.402 1.005-.7236l1.6483 1.6884c-.4422.4824-1.005.8442-1.6885 1.0854-.6834.2413-1.407.4021-2.211.4021-.7639 0-1.5277-.1206-2.2111-.3619-.6834-.2412-1.3266-.603-1.8493-1.1256-.5226-.4824-.9246-1.0854-1.2462-1.7688-.3216-.6835-.4422-1.4875-.4422-2.3719 0-.8443.1608-1.6483.4422-2.3317.3216-.6834.7236-1.28644 1.2462-1.76886.5227-.48242 1.1257-.84423 1.8091-1.12564s1.407-.40201 2.2111-.40201c.7638 0 1.5276.1608 2.2512.44221.7237.28141 1.3267.68343 1.7287 1.20604z"/><path d="m84.5019 8.04004h2.9347l2.9749 7.71866h.0402l2.6131-7.71866h2.7739l-5.0252 12.90466c-.201.4824-.402.9246-.603 1.2864s-.4824.6834-.804.9648c-.3217.2412-.6835.4423-1.0855.6031-.402.1206-.9246.201-1.5276.201-.201 0-.4422 0-.6835-.0402-.2412-.0402-.4422-.0804-.6834-.1206l.201-2.2915c.1608.0402.3618.0804.5226.1206s.3217.0402.4825.0402c.2814 0 .5226-.0402.7236-.0804.201-.0804.3618-.1608.4824-.3216s.2412-.3216.3618-.5226.201-.4423.3216-.7237l.5226-1.3668z"/><path d="m103.841 10.9749c-.201-.2814-.523-.5226-.925-.7236s-.844-.28144-1.246-.28144c-.482 0-.925.08044-1.286.28144-.362.201-.6839.4422-.9251.804-.2412.3216-.4422.6834-.5226 1.0854-.1206.402-.1608.8041-.1608 1.2463s.0804.804.201 1.2462c.1206.402.3216.7638.5628 1.0854.2412.3217.5627.6031.9247.8041s.804.2814 1.327.2814c.402 0 .844-.0804 1.246-.2412s.764-.402 1.005-.7236l1.648 1.6884c-.442.4824-1.005.8442-1.688 1.0854-.684.2413-1.407.4021-2.211.4021-.764 0-1.528-.1206-2.2115-.3619-.6834-.2412-1.3266-.603-1.8492-1.1256-.5227-.4824-.9247-1.0854-1.2463-1.7688-.3216-.6835-.4422-1.4875-.4422-2.3719 0-.8443.1608-1.6483.4422-2.3317.3216-.6834.7236-1.28644 1.2463-1.76886.5226-.48242 1.1256-.84423 1.809-1.12564.6837-.28141 1.4067-.40201 2.2107-.40201.764 0 1.528.1608 2.252.44221.723.28141 1.326.68343 1.728 1.20604z"/><path d="m110.072 1.92969h-2.654v16.72371h2.654z"/><path d="m122.252 13.4675v.3618c0 .1206 0 .2412-.04.3618h-8.081c.041.402.121.7236.282 1.0452s.402.603.683.804c.282.2412.603.4021.965.5227s.724.201 1.126.201c.643 0 1.206-.1206 1.688-.3618.442-.2413.844-.5629 1.126-1.0051l1.769 1.4071c-1.046 1.407-2.573 2.1306-4.543 2.1306-.844 0-1.568-.1206-2.292-.402-.683-.2412-1.286-.603-1.809-1.0854-.522-.4824-.924-1.0452-1.206-1.7287-.281-.6834-.442-1.4472-.442-2.3316 0-.8443.161-1.6483.442-2.3317.282-.6834.684-1.28647 1.166-1.80908.483-.48242 1.086-.88443 1.769-1.16584s1.407-.40201 2.211-.40201c.724 0 1.407.1206 2.05.36181.644.24121 1.166.60302 1.608 1.08543.443.48242.804 1.08539 1.086 1.80909.281.7638.442 1.5678.442 2.5327zm-2.653-1.1659c0-.3216-.04-.6432-.161-.9648-.08-.3216-.241-.5628-.442-.804s-.483-.4423-.804-.56286c-.322-.1206-.684-.20101-1.126-.20101-.804 0-1.487.24117-2.01.72367-.523.4824-.844 1.0854-.925 1.8492h5.468z"/><path d="m122.092 6.71368c0-.2412.04-.44221.121-.64322.08-.201.201-.40201.361-.52261.161-.16081.322-.28141.523-.36182.201-.0804.442-.1206.643-.1206.242 0 .443.0402.644.1206.201.08041.402.20101.522.36182.161.1608.282.32161.362.52261.08.20101.121.44222.121.64322 0 .24121-.041.44222-.121.64322-.08.20101-.201.36182-.362.52262-.161.16081-.321.28141-.522.36181-.201.08041-.443.12061-.644.12061-.241 0-.442-.0402-.643-.12061-.201-.0804-.402-.201-.523-.36181-.16-.1608-.281-.32161-.361-.52262-.081-.201-.121-.40201-.121-.64322zm.281 0c0 .20101.041.36182.121.56282.08.16081.161.32161.322.44222.12.1206.281.2412.442.32161.161.0804.362.1206.563.1206s.402-.0402.563-.1206c.16-.08041.321-.16081.442-.32161.12-.12061.241-.28141.321-.44222.081-.1608.121-.36181.121-.56282 0-.201-.04-.40201-.121-.56281-.08-.16081-.16-.32162-.321-.44222-.121-.1206-.282-.24121-.442-.32161-.161-.0804-.362-.1206-.563-.1206s-.402.0402-.563.1206-.322.16081-.442.32161c-.121.1206-.242.28141-.322.44222-.08.1608-.121.36181-.121.56281zm.764-.96483h.684c.08 0 .161 0 .241.0402s.161.0402.241.08041c.081.0402.121.1206.161.1608.04.0804.04.16081.04.24121 0 .1206-.04.24121-.12.32161-.081.0804-.201.1608-.322.1608l.523.84423h-.402l-.443-.80402h-.281v.80402h-.362v-1.84926zm.603.84423c.081 0 .201 0 .282-.0402.08-.0402.12-.12061.12-.24121s-.04-.16081-.12-.20101c-.081-.0402-.161-.0402-.242-.0402h-.321v.52262z"/><path d="m21.7892 10.8138c0 1.8091-1.4874 3.2965-3.2965 3.2965-1.809 0-3.2965-1.4472-3.2965-3.2965 0-1.80902 1.4875-3.29647 3.2965-3.29647 1.8091.04021 3.2965 1.48745 3.2965 3.29647z"/><path d="m6.59302 10.8138c0 1.8091-1.48745 3.2965-3.29651 3.2965s-3.29651-1.4472-3.29651-3.2965c0-1.80902 1.48745-3.29647 3.29651-3.29647 1.84926.04021 3.29651 1.48745 3.29651 3.29647z"/><path d="m9.52776 5.46758c0 1.24624-1.00504 2.25128-2.25128 2.25128s-2.25127-1.00504-2.25127-2.25128 1.00503-2.25127 2.25127-2.25127c1.28644 0 2.25128 1.00503 2.25128 2.25127z"/><path d="m16.8442 5.46758c0 1.24624-1.0051 2.25128-2.2513 2.25128-1.2463 0-2.2513-1.00504-2.2513-2.25128s1.005-2.25127 2.2513-2.25127c1.2462 0 2.2513 1.00503 2.2513 2.25127z"/><path d="m9.52776 16.2813c0 1.2462-1.00504 2.2513-2.25128 2.2513s-2.25127-1.0051-2.25127-2.2513 1.00503-2.2513 2.25127-2.2513c1.28644.0402 2.25128 1.0051 2.25128 2.2513z"/><path d="m13.2262 10.8142c0 1.2864-1.0452 2.2915-2.2915 2.2915-1.28642 0-2.29145-1.0453-2.29145-2.2915 0-1.28646 1.04523-2.29149 2.29145-2.29149 1.2865 0 2.2915 1.04523 2.2915 2.29149z"/><path d="m12.3421 1.36684c0 .76383-.603 1.36685-1.3668 1.36685s-1.36684-.60302-1.36684-1.36685c0-.76382.60304-1.36684 1.36684-1.36684s1.3668.60302 1.3668 1.36684z"/><path d="m12.3421 20.3017c0 .7638-.603 1.3668-1.3668 1.3668s-1.36684-.603-1.36684-1.3668c0-.7639.60304-1.3669 1.36684-1.3669s1.3668.603 1.3668 1.3669z"/><path d="m16.8442 16.2813c0 1.2462-1.0051 2.2513-2.2513 2.2513-1.2463 0-2.2513-1.0051-2.2513-2.2513s1.005-2.2513 2.2513-2.2513c1.2462.0402 2.2513 1.0051 2.2513 2.2513z"/></g></svg>