<?xml version="1.0" encoding="utf-8"?>
<!-- Generator: Adobe Illustrator 26.0.0, SVG Export Plug-In . SVG Version: 6.00 Build 0)  -->
<svg version="1.1" id="Layer_1" xmlns="http://www.w3.org/2000/svg" xmlns:xlink="http://www.w3.org/1999/xlink" x="0px" y="0px"
	 viewBox="0 0 242 72" style="enable-background:new 0 0 242 72;" xml:space="preserve">
<style type="text/css">
	.st0{fill:#20855B;}
	.st1{fill:#59595C;}
</style>
<g>
	<path class="st0" d="M73,15.8c-0.6-0.7-1.4-1.3-2.4-1.8c-1-0.5-2.1-0.7-3.1-0.7c-0.6,0-1.2,0.1-1.9,0.2c-0.6,0.2-1.2,0.4-1.7,0.7
		c-0.5,0.3-0.9,0.7-1.2,1.3c-0.3,0.5-0.5,1.1-0.5,1.9c0,0.7,0.1,1.3,0.4,1.7c0.3,0.5,0.7,0.9,1.2,1.2c0.5,0.3,1.1,0.6,1.8,0.9
		c0.7,0.3,1.5,0.5,2.3,0.8c1,0.3,1.9,0.7,3,1.1c1,0.4,2,0.9,2.8,1.6c0.9,0.6,1.6,1.5,2.1,2.4c0.5,1,0.8,2.2,0.8,3.7
		c0,1.6-0.3,3-0.9,4.2c-0.6,1.2-1.4,2.2-2.4,3c-1,0.8-2.1,1.4-3.5,1.8c-1.3,0.4-2.7,0.6-4.2,0.6c-1.9,0-3.8-0.4-5.7-1.1
		c-1.9-0.7-3.4-1.8-4.6-3.2l3.8-3.5c0.7,1,1.7,1.8,2.9,2.4c1.2,0.6,2.4,0.9,3.6,0.9c0.6,0,1.3-0.1,1.9-0.2c0.6-0.2,1.2-0.4,1.8-0.8
		c0.5-0.4,0.9-0.8,1.3-1.4c0.3-0.5,0.5-1.2,0.5-2c0-0.8-0.2-1.4-0.5-2c-0.4-0.5-0.9-1-1.5-1.3c-0.6-0.4-1.3-0.7-2.2-1
		c-0.8-0.3-1.7-0.6-2.7-0.9c-0.9-0.3-1.8-0.6-2.7-1c-0.9-0.4-1.7-0.9-2.4-1.6c-0.7-0.6-1.3-1.4-1.8-2.4c-0.5-0.9-0.7-2.1-0.7-3.5
		c0-1.5,0.3-2.8,0.9-3.9c0.6-1.1,1.5-2,2.5-2.7c1-0.7,2.2-1.3,3.5-1.6c1.3-0.4,2.6-0.5,4-0.5c1.5,0,3.1,0.3,4.6,0.8
		c1.6,0.5,2.9,1.3,4.1,2.4L73,15.8z"/>
	<path class="st0" d="M78.6,23.2v-4h3.5v-5.9h5v5.9h5.1v4h-5.1v9.4c0,0.9,0.2,1.6,0.5,2.2c0.3,0.6,1,0.9,2.2,0.9
		c0.3,0,0.7,0,1.1-0.1c0.4-0.1,0.7-0.2,1.1-0.3l0.2,4c-0.5,0.2-1,0.3-1.6,0.4c-0.6,0.1-1.2,0.1-1.8,0.1c-1.3,0-2.4-0.2-3.3-0.6
		c-0.8-0.4-1.5-0.9-2-1.6c-0.5-0.7-0.8-1.4-1-2.3c-0.2-0.9-0.3-1.8-0.3-2.8v-9.4H78.6z"/>
	<path class="st0" d="M114.5,29.5v0.7c0,0.2,0,0.5,0,0.7H99.1c0.1,0.7,0.2,1.4,0.6,2c0.3,0.6,0.8,1.1,1.3,1.6c0.5,0.4,1.1,0.8,1.8,1
		c0.7,0.3,1.4,0.4,2.1,0.4c1.3,0,2.3-0.2,3.2-0.7c0.9-0.5,1.6-1.1,2.2-1.9l3.4,2.7c-2,2.7-4.9,4-8.7,4c-1.6,0-3-0.2-4.3-0.7
		s-2.5-1.2-3.4-2.1c-1-0.9-1.7-2-2.3-3.3c-0.5-1.3-0.8-2.8-0.8-4.5c0-1.6,0.3-3.1,0.8-4.4c0.5-1.3,1.3-2.5,2.3-3.4
		c1-0.9,2.1-1.7,3.4-2.2c1.3-0.5,2.7-0.8,4.2-0.8c1.4,0,2.7,0.2,3.9,0.7c1.2,0.5,2.2,1.2,3.1,2.1c0.9,0.9,1.6,2.1,2,3.4
		C114.3,26.1,114.5,27.7,114.5,29.5 M109.5,27.2c0-0.6-0.1-1.3-0.3-1.9c-0.2-0.6-0.5-1.1-0.9-1.6c-0.4-0.4-0.9-0.8-1.5-1.1
		c-0.6-0.3-1.3-0.4-2.1-0.4c-1.5,0-2.8,0.5-3.9,1.4c-1.1,0.9-1.6,2.1-1.8,3.5H109.5z"/>
	<path class="st0" d="M117.8,19.1h4.9v3.4h0.1c0.6-1.2,1.3-2.1,2.4-2.9c1-0.7,2.2-1.1,3.5-1.1c0.2,0,0.4,0,0.6,0
		c0.2,0,0.4,0,0.6,0.1v4.6c-0.3-0.1-0.6-0.1-0.9-0.2c-0.2,0-0.5,0-0.7,0c-1.2,0-2.1,0.2-2.8,0.6c-0.7,0.4-1.3,0.9-1.6,1.5
		c-0.4,0.6-0.7,1.2-0.8,1.8c-0.1,0.6-0.2,1.1-0.2,1.5v10.8h-5.1V19.1z"/>
	<path class="st0" d="M132.5,12.3c0-0.8,0.3-1.5,0.9-2.1c0.6-0.6,1.4-0.9,2.3-0.9c0.9,0,1.7,0.3,2.3,0.9c0.6,0.6,0.9,1.3,0.9,2.2
		c0,0.9-0.3,1.6-0.9,2.2c-0.6,0.6-1.4,0.9-2.3,0.9c-0.9,0-1.7-0.3-2.3-0.9C132.8,13.8,132.5,13.1,132.5,12.3 M133.2,19.1h5.1v20.2
		h-5.1V19.1z"/>
	<path class="st0" d="M156.6,24.8c-0.4-0.6-1-1-1.8-1.4c-0.8-0.4-1.6-0.6-2.4-0.6c-0.9,0-1.7,0.2-2.4,0.6c-0.7,0.4-1.3,0.9-1.8,1.5
		c-0.5,0.6-0.8,1.3-1,2.1c-0.2,0.8-0.3,1.6-0.3,2.3c0,0.8,0.1,1.6,0.4,2.3c0.2,0.8,0.6,1.5,1.1,2.1c0.5,0.6,1.1,1.1,1.8,1.5
		c0.7,0.4,1.6,0.6,2.5,0.6c0.8,0,1.6-0.2,2.4-0.5c0.8-0.3,1.4-0.8,1.9-1.3l3.2,3.2c-0.8,0.9-1.9,1.6-3.2,2.1
		c-1.3,0.5-2.7,0.7-4.2,0.7c-1.5,0-2.9-0.2-4.2-0.7c-1.3-0.5-2.5-1.2-3.5-2.1c-1-0.9-1.8-2.1-2.4-3.4c-0.6-1.3-0.9-2.8-0.9-4.5
		c0-1.6,0.3-3.1,0.9-4.4c0.6-1.3,1.4-2.4,2.3-3.4c1-0.9,2.1-1.6,3.4-2.2c1.3-0.5,2.7-0.8,4.2-0.8c1.5,0,2.9,0.3,4.3,0.8
		c1.4,0.6,2.5,1.3,3.3,2.3L156.6,24.8z"/>
	<path class="st0" d="M161.6,19.1h5.6l5.7,14.7h0.1l5-14.7h5.3l-9.6,24.6c-0.4,0.9-0.8,1.8-1.2,2.5c-0.4,0.7-0.9,1.3-1.5,1.8
		c-0.6,0.5-1.3,0.9-2.1,1.1c-0.8,0.3-1.8,0.4-2.9,0.4c-0.4,0-0.9,0-1.3-0.1c-0.4,0-0.9-0.1-1.3-0.2l0.4-4.4c0.3,0.1,0.7,0.2,1,0.2
		c0.3,0,0.6,0.1,0.9,0.1c0.5,0,1-0.1,1.3-0.2c0.4-0.1,0.7-0.3,0.9-0.6c0.3-0.3,0.5-0.6,0.7-1c0.2-0.4,0.4-0.9,0.6-1.4l1-2.6
		L161.6,19.1z"/>
	<path class="st0" d="M198.4,24.8c-0.4-0.6-1-1-1.8-1.4c-0.8-0.4-1.6-0.6-2.4-0.6c-0.9,0-1.7,0.2-2.4,0.6c-0.7,0.4-1.3,0.9-1.8,1.5
		c-0.5,0.6-0.8,1.3-1,2.1c-0.2,0.8-0.3,1.6-0.3,2.3c0,0.8,0.1,1.6,0.4,2.3c0.2,0.8,0.6,1.5,1.1,2.1c0.5,0.6,1.1,1.1,1.8,1.5
		c0.7,0.4,1.6,0.6,2.5,0.6c0.8,0,1.6-0.2,2.4-0.5c0.8-0.3,1.4-0.8,1.9-1.3l3.2,3.2c-0.8,0.9-1.9,1.6-3.2,2.1
		c-1.3,0.5-2.7,0.7-4.2,0.7c-1.5,0-2.9-0.2-4.2-0.7c-1.3-0.5-2.5-1.2-3.5-2.1c-1-0.9-1.8-2.1-2.4-3.4c-0.6-1.3-0.9-2.8-0.9-4.5
		c0-1.6,0.3-3.1,0.9-4.4c0.6-1.3,1.4-2.4,2.3-3.4c1-0.9,2.1-1.6,3.4-2.2c1.3-0.5,2.7-0.8,4.2-0.8c1.5,0,2.9,0.3,4.3,0.8
		c1.4,0.6,2.5,1.3,3.3,2.3L198.4,24.8z"/>
	<rect x="205.3" y="7.5" class="st0" width="5.1" height="31.9"/>
	<path class="st0" d="M233.5,29.5v0.7c0,0.2,0,0.5,0,0.7h-15.4c0.1,0.7,0.2,1.4,0.6,2c0.3,0.6,0.8,1.1,1.3,1.6
		c0.5,0.4,1.1,0.8,1.8,1c0.7,0.3,1.4,0.4,2.1,0.4c1.3,0,2.3-0.2,3.2-0.7c0.9-0.5,1.6-1.1,2.2-1.9l3.4,2.7c-2,2.7-4.9,4-8.7,4
		c-1.6,0-3-0.2-4.3-0.7c-1.3-0.5-2.5-1.2-3.4-2.1c-1-0.9-1.7-2-2.3-3.3c-0.5-1.3-0.8-2.8-0.8-4.5c0-1.6,0.3-3.1,0.8-4.4
		c0.5-1.3,1.3-2.5,2.3-3.4c1-0.9,2.1-1.7,3.4-2.2c1.3-0.5,2.7-0.8,4.2-0.8c1.4,0,2.7,0.2,3.9,0.7c1.2,0.5,2.2,1.2,3.1,2.1
		c0.9,0.9,1.6,2.1,2,3.4C233.3,26.1,233.5,27.7,233.5,29.5 M228.5,27.2c0-0.6-0.1-1.3-0.3-1.9c-0.2-0.6-0.5-1.1-0.9-1.6
		c-0.4-0.4-0.9-0.8-1.5-1.1c-0.6-0.3-1.3-0.4-2.1-0.4c-1.5,0-2.8,0.5-3.9,1.4c-1.1,0.9-1.6,2.1-1.8,3.5H228.5z"/>
	<path class="st0" d="M233.3,16.6c0-0.4,0.1-0.9,0.3-1.3c0.2-0.4,0.4-0.7,0.7-1c0.3-0.3,0.6-0.5,1-0.7c0.4-0.2,0.8-0.3,1.3-0.3
		s0.9,0.1,1.3,0.3c0.4,0.2,0.7,0.4,1,0.7c0.3,0.3,0.5,0.6,0.7,1c0.2,0.4,0.3,0.8,0.3,1.3c0,0.4-0.1,0.9-0.3,1.2
		c-0.2,0.4-0.4,0.7-0.7,1c-0.3,0.3-0.6,0.5-1,0.7c-0.4,0.2-0.8,0.2-1.3,0.2s-0.9-0.1-1.3-0.2c-0.4-0.2-0.7-0.4-1-0.7
		c-0.3-0.3-0.5-0.6-0.7-1C233.4,17.5,233.3,17.1,233.3,16.6 M233.8,16.6c0,0.4,0.1,0.7,0.2,1c0.1,0.3,0.3,0.6,0.6,0.9
		c0.2,0.3,0.5,0.4,0.9,0.6c0.3,0.1,0.7,0.2,1.1,0.2c0.4,0,0.7-0.1,1.1-0.2c0.3-0.1,0.6-0.3,0.9-0.6c0.2-0.3,0.4-0.5,0.6-0.9
		c0.1-0.3,0.2-0.7,0.2-1c0-0.4-0.1-0.7-0.2-1.1c-0.1-0.3-0.3-0.6-0.6-0.9c-0.2-0.2-0.5-0.4-0.9-0.6c-0.3-0.1-0.7-0.2-1.1-0.2
		c-0.4,0-0.7,0.1-1.1,0.2c-0.3,0.1-0.6,0.3-0.9,0.6c-0.2,0.2-0.4,0.5-0.6,0.9C233.9,15.9,233.8,16.2,233.8,16.6 M235.2,14.8h1.3
		c0.2,0,0.3,0,0.5,0.1c0.2,0,0.3,0.1,0.4,0.2c0.1,0.1,0.2,0.2,0.3,0.3c0.1,0.1,0.1,0.3,0.1,0.5c0,0.3-0.1,0.5-0.2,0.6
		c-0.2,0.2-0.4,0.3-0.6,0.3l1,1.6h-0.8l-0.8-1.5h-0.5v1.5h-0.7V14.8z M236.4,16.4c0.2,0,0.4,0,0.5-0.1c0.2-0.1,0.3-0.2,0.3-0.4
		c0-0.2-0.1-0.3-0.2-0.4c-0.2-0.1-0.3-0.1-0.5-0.1h-0.6v1H236.4z"/>
	<path class="st0" d="M41.9,24.5c0,3.5-2.8,6.3-6.3,6.3c-3.5,0-6.3-2.8-6.3-6.3c0-3.5,2.8-6.3,6.3-6.3C39.1,18.2,41.9,21,41.9,24.5"
		/>
	<path class="st0" d="M12.9,24.5c0,3.5-2.8,6.3-6.3,6.3c-3.5,0-6.3-2.8-6.3-6.3c0-3.5,2.8-6.3,6.3-6.3C10.1,18.2,12.9,21,12.9,24.5"
		/>
	<path class="st0" d="M18.6,14.2c0,2.4-1.9,4.3-4.3,4.3c-2.4,0-4.3-1.9-4.3-4.3c0-2.4,1.9-4.3,4.3-4.3C16.7,10,18.6,11.9,18.6,14.2"
		/>
	<path class="st0" d="M32.5,14.2c0,2.4-1.9,4.3-4.3,4.3c-2.4,0-4.3-1.9-4.3-4.3c0-2.4,1.9-4.3,4.3-4.3C30.6,10,32.5,11.9,32.5,14.2"
		/>
	<path class="st0" d="M18.6,34.9c0,2.4-1.9,4.3-4.3,4.3c-2.4,0-4.3-1.9-4.3-4.3c0-2.4,1.9-4.3,4.3-4.3
		C16.7,30.6,18.6,32.5,18.6,34.9"/>
	<path class="st0" d="M25.6,24.5c0,2.4-2,4.4-4.4,4.4c-2.4,0-4.4-2-4.4-4.4c0-2.4,2-4.4,4.4-4.4C23.6,20.1,25.6,22,25.6,24.5"/>
	<path class="st0" d="M23.9,6.4c0,1.4-1.2,2.6-2.6,2.6c-1.4,0-2.6-1.2-2.6-2.6c0-1.4,1.2-2.6,2.6-2.6C22.7,3.8,23.9,5,23.9,6.4"/>
	<path class="st0" d="M23.9,42.5c0,1.4-1.2,2.6-2.6,2.6c-1.4,0-2.6-1.2-2.6-2.6c0-1.4,1.2-2.6,2.6-2.6
		C22.7,39.9,23.9,41.1,23.9,42.5"/>
	<path class="st0" d="M32.5,34.9c0,2.4-1.9,4.3-4.3,4.3c-2.4,0-4.3-1.9-4.3-4.3c0-2.4,1.9-4.3,4.3-4.3
		C30.6,30.6,32.5,32.5,32.5,34.9"/>
</g>
<g>
	<path class="st1" d="M60,66.5L60,66.5l2.9-9.7h1.4l2.8,9.7h0l2.8-9.7h1.2L67.8,68h-1.3l-2.8-9.7h0L60.7,68h-1.3L56,56.7h1.2
		L60,66.5z"/>
	<path class="st1" d="M78.1,64.6h-6.2c0,1.5,1.2,2.7,2.7,2.7c1.1,0,2-0.6,2.4-1.3l0.8,0.6c-0.9,1.1-2,1.6-3.2,1.6
		c-2.2,0-3.9-1.7-3.9-3.9c0-2.3,1.6-3.9,3.8-3.9c2.3,0,3.6,1.7,3.6,3.7C78.1,64.2,78.1,64.4,78.1,64.6z M77,63.7
		c-0.1-1.4-0.9-2.4-2.5-2.4c-1.5,0-2.5,1.2-2.6,2.4H77z"/>
	<path class="st1" d="M85.5,71.9h-1.1V60.6h1.1v1.3h0c0.6-1,1.7-1.5,2.8-1.5c2.3,0,3.9,1.7,3.9,3.9c0,2.2-1.5,3.9-3.9,3.9
		c-1.1,0-2.2-0.5-2.8-1.5h0V71.9z M88.3,61.3c-1.7,0-2.9,1.3-2.9,3c0,1.7,1.2,3,2.9,3c1.8,0,2.8-1.3,2.8-3
		C91.1,62.6,90.1,61.3,88.3,61.3z"/>
	<path class="st1" d="M94.5,60.6h1c0,0.4,0.1,1,0.1,1.3h0c0.4-0.9,1.3-1.5,2.4-1.5c0.3,0,0.5,0,0.7,0.1l-0.1,1
		c-0.1,0-0.5-0.1-0.8-0.1c-1.2,0-2.2,0.8-2.2,2.8V68h-1.1v-5.8C94.6,61.8,94.6,61.1,94.5,60.6z"/>
	<path class="st1" d="M103.5,68.2c-2.3,0-4-1.7-4-3.9c0-2.3,1.7-3.9,4-3.9c2.3,0,4,1.7,4,3.9C107.5,66.6,105.8,68.2,103.5,68.2z
		 M103.5,61.3c-1.7,0-2.8,1.3-2.8,3c0,1.7,1.1,3,2.8,3c1.7,0,2.8-1.3,2.8-3C106.3,62.6,105.2,61.3,103.5,61.3z"/>
	<path class="st1" d="M113.2,61.5h-2.1v4.4c0,1.1,0.5,1.4,1.1,1.4c0.3,0,0.7-0.1,0.9-0.2l0,0.9c-0.4,0.1-0.8,0.2-1.3,0.2
		c-0.8,0-1.9-0.4-1.9-2v-4.7h-1.5v-0.9h1.5v-2.1h1.1v2.1h2.1V61.5z"/>
	<path class="st1" d="M121.7,64.6h-6.2c0,1.5,1.2,2.7,2.7,2.7c1.1,0,2-0.6,2.4-1.3l0.8,0.6c-0.9,1.1-2,1.6-3.2,1.6
		c-2.2,0-3.9-1.7-3.9-3.9c0-2.3,1.6-3.9,3.8-3.9c2.3,0,3.6,1.7,3.6,3.7C121.7,64.2,121.7,64.4,121.7,64.6z M120.6,63.7
		c-0.1-1.4-0.9-2.4-2.5-2.4c-1.5,0-2.5,1.2-2.6,2.4H120.6z"/>
	<path class="st1" d="M129.4,62.3c-0.4-0.6-1.1-1-1.9-1c-1.7,0-2.9,1.3-2.9,3c0,1.7,1.1,3,2.8,3c0.9,0,1.6-0.4,2-1l0.8,0.6
		c-0.6,0.8-1.5,1.3-2.8,1.3c-2.4,0-4-1.7-4-3.9c0-2.3,1.6-3.9,4-3.9c1,0,2.1,0.4,2.8,1.3L129.4,62.3z"/>
	<path class="st1" d="M136.2,61.5h-2.1v4.4c0,1.1,0.5,1.4,1.1,1.4c0.3,0,0.7-0.1,0.9-0.2l0,0.9c-0.4,0.1-0.8,0.2-1.3,0.2
		c-0.8,0-1.9-0.4-1.9-2v-4.7h-1.5v-0.9h1.5v-2.1h1.1v2.1h2.1V61.5z"/>
	<path class="st1" d="M142,60.6l1.8,6.1h0l2-6.1h1.1l2,6.1h0l1.8-6.1h1.2l-2.4,7.5h-1.2l-2-6.1h0l-2,6.1h-1.2l-2.4-7.5H142z"/>
	<path class="st1" d="M154.9,61.8c0.4-0.9,1.5-1.4,2.5-1.4c1.9,0,2.8,1.2,2.8,3.1V68h-1.1v-4.1c0-1.6-0.5-2.6-2-2.6
		c-1.2,0-2.3,0.9-2.3,2.9V68h-1.1V56h1.1L154.9,61.8L154.9,61.8z"/>
	<path class="st1" d="M167.8,63.2c0-1.3-0.7-1.9-2-1.9c-0.9,0-1.7,0.4-2.2,0.9l-0.6-0.7c0.6-0.6,1.7-1.1,2.9-1.1
		c1.6,0,2.9,0.9,2.9,2.7v3.3c0,0.6,0,1.3,0.1,1.7h-1c-0.1-0.4-0.1-0.8-0.1-1.2h0c-0.7,1-1.5,1.4-2.7,1.4c-1.1,0-2.6-0.6-2.6-2.3
		c0-2.3,2.5-2.5,5.3-2.5V63.2z M167.5,64.3c-1.8,0-3.8,0.2-3.8,1.6c0,1.1,0.9,1.4,1.8,1.4c1.5,0,2.4-1.2,2.4-2.5v-0.6H167.5z"/>
	<path class="st1" d="M174.8,61.5h-2.1v4.4c0,1.1,0.5,1.4,1.1,1.4c0.3,0,0.7-0.1,0.9-0.2l0,0.9c-0.4,0.1-0.8,0.2-1.3,0.2
		c-0.8,0-1.9-0.4-1.9-2v-4.7h-1.5v-0.9h1.5v-2.1h1.1v2.1h2.1V61.5z"/>
	<path class="st1" d="M184,60.4c0.8,0,1.8,0.3,2.3,1.6c0.5-1,1.4-1.6,2.6-1.6c1.9,0,2.8,1.2,2.8,3.1V68h-1.1v-4.1
		c0-1.6-0.5-2.6-1.9-2.6c-1.6,0-2.1,1.4-2.1,2.8v4h-1.1v-4.4c0-1.5-0.4-2.4-1.8-2.4c-1,0-2.2,0.9-2.2,2.9V68h-1.1v-5.8
		c0-0.4,0-1.1-0.1-1.6h1c0,0.4,0.1,1,0.1,1.3h0C182,61,183,60.4,184,60.4z"/>
	<path class="st1" d="M199.3,63.2c0-1.3-0.7-1.9-2-1.9c-0.9,0-1.7,0.4-2.2,0.9l-0.6-0.7c0.6-0.6,1.7-1.1,2.9-1.1
		c1.6,0,2.9,0.9,2.9,2.7v3.3c0,0.6,0,1.3,0.1,1.7h-1c-0.1-0.4-0.1-0.8-0.1-1.2h0c-0.7,1-1.5,1.4-2.7,1.4c-1.1,0-2.6-0.6-2.6-2.3
		c0-2.3,2.5-2.5,5.3-2.5V63.2z M199,64.3c-1.8,0-3.8,0.2-3.8,1.6c0,1.1,0.9,1.4,1.8,1.4c1.5,0,2.4-1.2,2.4-2.5v-0.6H199z"/>
	<path class="st1" d="M206.4,61.5h-2.1v4.4c0,1.1,0.5,1.4,1.1,1.4c0.3,0,0.7-0.1,0.9-0.2l0,0.9c-0.4,0.1-0.8,0.2-1.3,0.2
		c-0.8,0-1.9-0.4-1.9-2v-4.7h-1.5v-0.9h1.5v-2.1h1.1v2.1h2.1V61.5z"/>
	<path class="st1" d="M212.1,61.5H210v4.4c0,1.1,0.5,1.4,1.1,1.4c0.3,0,0.7-0.1,0.9-0.2l0,0.9c-0.4,0.1-0.8,0.2-1.3,0.2
		c-0.8,0-1.9-0.4-1.9-2v-4.7h-1.5v-0.9h1.5v-2.1h1.1v2.1h2.1V61.5z"/>
	<path class="st1" d="M220.5,64.6h-6.2c0,1.5,1.2,2.7,2.7,2.7c1.1,0,2-0.6,2.4-1.3l0.8,0.6c-0.9,1.1-2,1.6-3.2,1.6
		c-2.2,0-3.9-1.7-3.9-3.9c0-2.3,1.6-3.9,3.8-3.9c2.3,0,3.6,1.7,3.6,3.7C220.6,64.2,220.6,64.4,220.5,64.6z M219.5,63.7
		c-0.1-1.4-0.9-2.4-2.5-2.4c-1.5,0-2.5,1.2-2.6,2.4H219.5z"/>
	<path class="st1" d="M222.8,60.6h1c0,0.4,0.1,1,0.1,1.3h0c0.4-0.9,1.3-1.5,2.4-1.5c0.3,0,0.5,0,0.7,0.1l-0.1,1
		c-0.1,0-0.5-0.1-0.8-0.1c-1.2,0-2.2,0.8-2.2,2.8V68h-1.1v-5.8C222.9,61.8,222.9,61.1,222.8,60.6z"/>
	<path class="st1" d="M232.6,62.3c-0.3-0.6-1-1.1-1.8-1.1c-0.8,0-1.6,0.3-1.6,1.2c0,0.7,0.6,1,1.8,1.3c1.8,0.4,2.6,1,2.6,2.2
		c0,1.7-1.4,2.3-2.8,2.3c-1.1,0-2.3-0.4-3-1.5l0.9-0.6c0.4,0.7,1.2,1.2,2.1,1.2c0.9,0,1.8-0.3,1.8-1.3c0-0.8-0.8-1.1-2.2-1.4
		c-0.9-0.2-2.1-0.6-2.1-2c0-1.5,1.3-2.2,2.7-2.2c1,0,2.1,0.5,2.6,1.3L232.6,62.3z"/>
	<path class="st1" d="M236.4,68.1c-0.5,0-0.9-0.4-0.9-0.9s0.4-0.9,0.9-0.9s0.9,0.4,0.9,0.9S236.9,68.1,236.4,68.1z"/>
</g>
</svg>
